<svg width="99" height="126" viewBox="0 0 99 126" fill="none" xmlns="http://www.w3.org/2000/svg">
<path fill-rule="evenodd" clip-rule="evenodd" d="M54.241 64.5235V2.70098C54.241 -0.900327 59.3429 -0.900327 59.3429 2.70098C59.3429 22.2081 90.5542 36.3132 73.1479 61.8225C71.9474 63.323 70.4469 62.1226 71.3472 60.622C77.6495 54.3198 69.5466 34.5126 59.3429 31.8116V72.6264C59.3429 90.633 25.1304 96.6351 20.9289 81.0295C17.3276 66.9243 41.9365 56.7206 54.241 64.5235Z" fill="#01FF9A"/>
<path d="M20.9331 103.55V121H17.4331V109.65L12.7581 121H10.1081L5.40811 109.65V121H1.90811V103.55H5.88311L11.4331 116.525L16.9831 103.55H20.9331ZM43.4685 107.15V121H39.9435V119.25C39.4935 119.85 38.9018 120.325 38.1685 120.675C37.4518 121.008 36.6685 121.175 35.8185 121.175C34.7351 121.175 33.7768 120.95 32.9435 120.5C32.1101 120.033 31.4518 119.358 30.9685 118.475C30.5018 117.575 30.2685 116.508 30.2685 115.275V107.15H33.7685V114.775C33.7685 115.875 34.0435 116.725 34.5935 117.325C35.1435 117.908 35.8935 118.2 36.8435 118.2C37.8101 118.2 38.5685 117.908 39.1185 117.325C39.6685 116.725 39.9435 115.875 39.9435 114.775V107.15H43.4685ZM58.2218 121.225C57.0884 121.225 56.0718 121.025 55.1718 120.625C54.2718 120.208 53.5551 119.65 53.0218 118.95C52.5051 118.25 52.2218 117.475 52.1718 116.625H55.6968C55.7634 117.158 56.0218 117.6 56.4718 117.95C56.9384 118.3 57.5134 118.475 58.1968 118.475C58.8634 118.475 59.3801 118.342 59.7468 118.075C60.1301 117.808 60.3218 117.467 60.3218 117.05C60.3218 116.6 60.0884 116.267 59.6218 116.05C59.1718 115.817 58.4468 115.567 57.4468 115.3C56.4134 115.05 55.5634 114.792 54.8968 114.525C54.2468 114.258 53.6801 113.85 53.1968 113.3C52.7301 112.75 52.4968 112.008 52.4968 111.075C52.4968 110.308 52.7134 109.608 53.1468 108.975C53.5968 108.342 54.2301 107.842 55.0468 107.475C55.8801 107.108 56.8551 106.925 57.9718 106.925C59.6218 106.925 60.9384 107.342 61.9218 108.175C62.9051 108.992 63.4468 110.1 63.5468 111.5H60.1968C60.1468 110.95 59.9134 110.517 59.4968 110.2C59.0968 109.867 58.5551 109.7 57.8718 109.7C57.2384 109.7 56.7468 109.817 56.3968 110.05C56.0634 110.283 55.8968 110.608 55.8968 111.025C55.8968 111.492 56.1301 111.85 56.5968 112.1C57.0634 112.333 57.7884 112.575 58.7718 112.825C59.7718 113.075 60.5968 113.333 61.2468 113.6C61.8968 113.867 62.4551 114.283 62.9218 114.85C63.4051 115.4 63.6551 116.133 63.6718 117.05C63.6718 117.85 63.4468 118.567 62.9968 119.2C62.5634 119.833 61.9301 120.333 61.0968 120.7C60.2801 121.05 59.3218 121.225 58.2218 121.225ZM74.3198 105.5C73.7032 105.5 73.1865 105.308 72.7698 104.925C72.3698 104.525 72.1698 104.033 72.1698 103.45C72.1698 102.867 72.3698 102.383 72.7698 102C73.1865 101.6 73.7032 101.4 74.3198 101.4C74.9365 101.4 75.4448 101.6 75.8448 102C76.2615 102.383 76.4698 102.867 76.4698 103.45C76.4698 104.033 76.2615 104.525 75.8448 104.925C75.4448 105.308 74.9365 105.5 74.3198 105.5ZM76.0448 107.15V121H72.5448V107.15H76.0448ZM84.6028 114.075C84.6028 112.642 84.8945 111.392 85.4778 110.325C86.0612 109.242 86.8695 108.408 87.9028 107.825C88.9362 107.225 90.1195 106.925 91.4528 106.925C93.1695 106.925 94.5862 107.358 95.7028 108.225C96.8362 109.075 97.5945 110.275 97.9778 111.825H94.2028C94.0028 111.225 93.6612 110.758 93.1778 110.425C92.7112 110.075 92.1278 109.9 91.4278 109.9C90.4278 109.9 89.6362 110.267 89.0528 111C88.4695 111.717 88.1778 112.742 88.1778 114.075C88.1778 115.392 88.4695 116.417 89.0528 117.15C89.6362 117.867 90.4278 118.225 91.4278 118.225C92.8445 118.225 93.7695 117.592 94.2028 116.325H97.9778C97.5945 117.825 96.8362 119.017 95.7028 119.9C94.5695 120.783 93.1528 121.225 91.4528 121.225C90.1195 121.225 88.9362 120.933 87.9028 120.35C86.8695 119.75 86.0612 118.917 85.4778 117.85C84.8945 116.767 84.6028 115.508 84.6028 114.075Z" fill="white"/>
</svg>
